<svg width="28" height="17" viewBox="0 0 28 17" fill="none" xmlns="http://www.w3.org/2000/svg">
<path d="M26 7.48535C26.5523 7.48535 27 7.93307 27 8.48535C27 9.03764 26.5523 9.48535 26 9.48535H1C0.447715 9.48535 0 9.03764 0 8.48535C0 7.93307 0.447715 7.48535 1 7.48535H26Z" fill="white"/>
<path d="M26.7071 7.77817C27.0976 8.1687 27.0976 8.80186 26.7071 9.19239C26.3166 9.58291 25.6834 9.58291 25.2929 9.19239L18.2218 2.12132C17.8313 1.7308 17.8313 1.09763 18.2218 0.707107C18.6123 0.316582 19.2455 0.316582 19.636 0.707107L26.7071 7.77817Z" fill="white"/>
<path d="M18.2219 14.8495C17.8313 15.24 17.8313 15.8732 18.2219 16.2637C18.6124 16.6542 19.2455 16.6542 19.6361 16.2637L26.7071 9.19261C27.0977 8.80209 27.0977 8.16892 26.7071 7.7784C26.3166 7.38787 25.6834 7.38787 25.2929 7.7784L18.2219 14.8495Z" fill="white"/>
</svg>
