<svg width="120" height="29" viewBox="0 0 120 29" fill="none" xmlns="http://www.w3.org/2000/svg">
<path d="M28.0706 14.0373C28.0706 21.791 21.7829 28.0746 14.0433 28.0746C6.30374 28.0746 0 21.789 0 14.0373C0 6.28567 6.28567 0 14.0433 0C21.801 0 28.0706 6.29169 28.0706 14.0373Z" fill="white"/>
<path d="M14.0514 27.4122C21.4275 27.4122 27.4119 21.4278 27.4119 14.0396C27.4119 6.65143 21.4275 0.666992 14.0494 0.666992C6.67124 0.666992 0.678772 6.65545 0.678772 14.0396C0.678772 21.4237 6.6612 27.4122 14.0514 27.4122Z" fill="#0083CA"/>
<mask id="mask0_2056_88" style="mask-type:luminance" maskUnits="userSpaceOnUse" x="0" y="0" width="28" height="28">
<path d="M14.0514 27.4124C21.4275 27.4124 27.4119 21.4279 27.4119 14.0458C27.4119 6.66364 21.4275 0.679199 14.0494 0.679199C6.67124 0.679199 0.678772 6.65962 0.678772 14.0458C0.678772 21.4319 6.6612 27.4124 14.0514 27.4124Z" fill="white"/>
</mask>
<g mask="url(#mask0_2056_88)">
<path d="M14.1679 20.4892C20.0499 20.4892 25.0804 22.1319 27.2453 24.4554C27.9582 22.8026 28.3578 20.9611 28.3578 19.0473C28.3578 11.372 22.0018 5.1626 14.1679 5.1626C6.33386 5.1626 -0.0160675 11.374 -0.0160675 19.0533C-0.0160675 20.9671 0.385573 22.7986 1.09848 24.4554C3.2573 22.1319 8.29588 20.4892 14.1679 20.4892Z" fill="#0083CA"/>
<path d="M14.1658 20.5054C20.0338 20.5054 25.0503 22.134 27.2111 24.4394C27.924 22.7987 28.3216 20.9733 28.3216 19.0755C28.3216 11.4624 21.9818 5.2832 14.1679 5.2832C6.35395 5.2832 0.018074 11.4624 0.018074 19.0795C0.018074 20.9793 0.417706 22.7967 1.13062 24.4394C3.28542 22.134 8.30993 20.5054 14.1658 20.5054Z" fill="#0085CC"/>
<path d="M14.1638 20.5196C20.0157 20.5196 25.0202 22.1342 27.175 24.4216C27.8859 22.7949 28.2815 20.9855 28.2815 19.0998C28.2815 11.547 21.9577 5.3999 14.1638 5.3999C6.37001 5.3999 0.0542145 11.551 0.0542145 19.1059C0.0542145 20.9896 0.453846 22.7929 1.16475 24.4216C3.31352 22.1342 8.32399 20.5196 14.1658 20.5196H14.1638Z" fill="#0087CD"/>
<path d="M14.1638 20.5353C20.0017 20.5353 24.992 22.1379 27.1408 24.4051C27.8497 22.7926 28.2453 20.9972 28.2453 19.1276C28.2453 11.637 21.9376 5.52002 14.1638 5.52002C6.39009 5.52002 0.088356 11.639 0.088356 19.1316C0.088356 21.0012 0.48598 22.7885 1.19688 24.4051C3.33963 22.1379 8.33804 20.5353 14.1638 20.5353Z" fill="#0088CE"/>
<path d="M14.1618 20.5496C19.9836 20.5496 24.9639 22.1381 27.1047 24.3873C27.8136 22.7867 28.2072 21.0075 28.2072 19.1519C28.2072 11.7236 21.9155 5.63672 14.1618 5.63672C6.40816 5.63672 0.122498 11.7276 0.122498 19.1579C0.122498 21.0115 0.520121 22.7867 1.22701 24.3873C3.36373 22.1381 8.35009 20.5496 14.1598 20.5496H14.1618Z" fill="#008ACF"/>
<path d="M14.1598 20.5658C19.9675 20.5658 24.9338 22.1402 27.0685 24.3713C27.7754 22.7849 28.169 21.0196 28.169 19.1801C28.169 11.8141 21.8934 5.75732 14.1598 5.75732C6.42624 5.75732 0.156639 11.8141 0.156639 19.1842C0.156639 21.0237 0.552255 22.7828 1.25914 24.3713C3.39185 22.1402 8.36415 20.5658 14.1598 20.5658Z" fill="#008CD0"/>
<path d="M14.1578 20.58C19.9495 20.58 24.9037 22.1424 27.0344 24.3534C27.7393 22.781 28.1329 21.0299 28.1329 19.2064C28.1329 11.9006 21.8733 5.87598 14.1598 5.87598C6.44633 5.87598 0.190781 11.9026 0.190781 19.2104C0.190781 21.0339 0.586396 22.779 1.29127 24.3534C3.41796 22.1424 8.37821 20.58 14.1578 20.58Z" fill="#008ED2"/>
<path d="M14.1558 20.5963C19.9334 20.5963 24.8736 22.1446 26.9982 24.3375C27.7031 22.7772 28.0927 21.0421 28.0927 19.2327C28.0927 11.9891 21.8492 5.99463 14.1558 5.99463C6.46238 5.99463 0.224915 11.9911 0.224915 19.2367C0.224915 21.0461 0.618522 22.7772 1.3234 24.3375C3.44406 22.1446 8.39026 20.5963 14.1558 20.5963Z" fill="#0090D3"/>
<path d="M14.1538 20.6105C19.9153 20.6105 24.8434 22.1447 26.9621 24.3196C27.665 22.7733 28.0546 21.0523 28.0546 19.259C28.0546 12.0776 21.8291 6.11328 14.1538 6.11328C6.47845 6.11328 0.259056 12.0796 0.259056 19.263C0.259056 21.0563 0.652663 22.7733 1.35353 24.3216C3.46816 22.1468 8.40231 20.6125 14.1518 20.6125L14.1538 20.6105Z" fill="#0091D4"/>
<path d="M14.1518 20.6238C19.8973 20.6238 24.8133 22.144 26.926 24.3008C27.6268 22.7685 28.0164 21.0616 28.0164 19.2823C28.0164 12.1632 21.807 6.229 14.1518 6.229C6.49653 6.229 0.293198 12.1673 0.293198 19.2863C0.293198 21.0656 0.684797 22.7665 1.38566 24.3008C3.49427 22.144 8.41637 20.6238 14.1518 20.6238Z" fill="#0093D5"/>
<path d="M14.1498 20.64C19.8812 20.64 24.7832 22.1481 26.8898 24.2848C27.5907 22.7646 27.9783 21.0737 27.9783 19.3105C27.9783 12.2537 21.785 6.34961 14.1498 6.34961C6.5146 6.34961 0.329346 12.2557 0.329346 19.3125C0.329346 21.0757 0.720945 22.7646 1.4198 24.2848C3.52439 22.1481 8.43244 20.64 14.1518 20.64H14.1498Z" fill="#0095D7"/>
<path d="M14.1478 20.6542C19.8631 20.6542 24.7551 22.1483 26.8557 24.267C27.5545 22.7608 27.9421 21.084 27.9421 19.3349C27.9421 12.3383 21.7649 6.46631 14.1498 6.46631C6.53468 6.46631 0.36348 12.3423 0.36348 19.3389C0.36348 21.088 0.75307 22.7608 1.45192 24.267C3.55049 22.1483 8.44649 20.6542 14.1498 20.6542H14.1478Z" fill="#0097D8"/>
<path d="M14.1458 20.6699C19.847 20.6699 24.725 22.15 26.8195 24.2506C27.5164 22.7585 27.9019 21.0957 27.9019 19.3626C27.9019 12.4283 21.7408 6.58643 14.1458 6.58643C6.55075 6.58643 0.397621 12.4303 0.397621 19.3646C0.397621 21.0977 0.787212 22.7565 1.48205 24.2506C3.57459 22.15 8.45854 20.6699 14.1458 20.6699Z" fill="#0099D9"/>
<path d="M14.1438 20.6842C19.829 20.6842 24.6948 22.1522 26.7834 24.2326C27.4802 22.7526 27.8638 21.1059 27.8638 19.3889C27.8638 12.5168 21.7187 6.70508 14.1438 6.70508C6.56882 6.70508 0.431763 12.5188 0.431763 19.3909C0.431763 21.1099 0.819345 22.7526 1.51418 24.2326C3.6007 22.1501 8.47059 20.6842 14.1458 20.6842H14.1438Z" fill="#009BDA"/>
<path d="M14.1438 20.7004C19.8149 20.7004 24.6667 22.1543 26.7492 24.2168C27.4441 22.7508 27.8276 21.1181 27.8276 19.4151C27.8276 12.6053 21.6986 6.82373 14.1438 6.82373C6.58891 6.82373 0.465904 12.6073 0.465904 19.4172C0.465904 21.1201 0.853487 22.7508 1.54632 24.2168C3.62882 22.1543 8.48465 20.7004 14.1438 20.7004Z" fill="#009DDC"/>
<path d="M14.1418 20.7146C19.7968 20.7146 24.6366 22.1545 26.7151 24.1988C27.4079 22.7469 27.7915 21.1283 27.7915 19.4414C27.7915 12.6939 21.6785 6.94238 14.1438 6.94238C6.60899 6.94238 0.500046 12.6959 0.500046 19.4434C0.500046 21.1323 0.88562 22.7469 1.57644 24.1988C3.65292 22.1545 8.4967 20.7146 14.1397 20.7146H14.1418Z" fill="#009FDD"/>
<path d="M14.1397 20.7304C19.7808 20.7304 24.6065 22.1582 26.6789 24.1825C27.3718 22.7426 27.7513 21.14 27.7513 19.4672C27.7513 12.7799 21.6544 7.06055 14.1397 7.06055C6.62505 7.06055 0.53418 12.7819 0.53418 19.4692C0.53418 21.142 0.919754 22.7426 1.60857 24.1825C3.67902 22.1562 8.51075 20.7304 14.1377 20.7304H14.1397Z" fill="#00A1DE"/>
<path d="M14.1377 20.7451C19.7627 20.7451 24.5784 22.1589 26.6428 24.165C27.3336 22.7392 27.7132 21.1507 27.7132 19.494C27.7132 12.8689 21.6323 7.17969 14.1377 7.17969C6.64313 7.17969 0.568321 12.8709 0.568321 19.496C0.568321 21.1548 0.951888 22.7412 1.6407 24.1671C3.70513 22.1589 8.52481 20.7471 14.1377 20.7471V20.7451Z" fill="#00A3DF"/>
<path d="M14.1357 20.7608C19.7466 20.7608 24.5482 22.1605 26.6066 24.1486C27.2955 22.7368 27.675 21.1624 27.675 19.5217C27.675 12.9589 21.6123 7.2998 14.1357 7.2998C6.65919 7.2998 0.604469 12.9589 0.604469 19.5217C0.604469 21.1644 0.988036 22.7368 1.67484 24.1486C3.73325 22.1605 8.54088 20.7608 14.1377 20.7608H14.1357Z" fill="#00A5E1"/>
<path d="M14.1337 20.7746C19.7286 20.7746 24.5181 22.1602 26.5705 24.1303C27.2593 22.7306 27.6369 21.1722 27.6369 19.5455C27.6369 13.045 21.5902 7.41602 14.1337 7.41602C6.67727 7.41602 0.638611 13.047 0.638611 19.5476C0.638611 21.1762 1.02017 22.7326 1.70497 24.1323C3.75935 22.1622 8.55092 20.7766 14.1337 20.7766V20.7746Z" fill="#00A7E2"/>
<path d="M14.1317 20.7888C19.7105 20.7888 24.488 22.1624 26.5364 24.1124C27.2232 22.7267 27.6007 21.1824 27.6007 19.5718C27.6007 13.1335 21.5701 7.53467 14.1337 7.53467C6.69735 7.53467 0.672745 13.1355 0.672745 19.5738C0.672745 21.1864 1.0543 22.7307 1.73709 24.1144C3.78546 22.1624 8.56497 20.7908 14.1317 20.7908V20.7888Z" fill="#00A9E3"/>
<path d="M14.1297 20.8045C19.6944 20.8045 24.4579 22.1641 26.5002 24.096C27.185 22.7244 27.5605 21.1941 27.5605 19.5976C27.5605 13.2196 21.546 7.65283 14.1297 7.65283C6.71341 7.65283 0.706886 13.2216 0.706886 19.5996C0.706886 21.1981 1.08644 22.7264 1.76922 24.098C3.81156 22.1661 8.57903 20.8065 14.1297 20.8065V20.8045Z" fill="#00ABE5"/>
<path d="M14.1277 20.8193C19.6763 20.8193 24.4277 22.1647 26.4641 24.0786C27.1468 22.719 27.5224 21.2048 27.5224 19.6244C27.5224 13.3086 21.5239 7.77197 14.1277 7.77197C6.73148 7.77197 0.74102 13.3106 0.74102 19.6264C0.74102 21.2088 1.12057 22.723 1.80135 24.0806C3.83767 22.1668 8.59308 20.8213 14.1297 20.8213L14.1277 20.8193Z" fill="#00ADE6"/>
<path d="M14.1257 20.835C19.6603 20.835 24.3976 22.1684 26.4279 24.0622C27.1107 22.7167 27.4842 21.2166 27.4842 19.6502C27.4842 13.3966 21.5018 7.89014 14.1257 7.89014C6.74957 7.89014 0.775169 13.3986 0.775169 19.6502C0.775169 21.2186 1.15271 22.7187 1.83148 24.0622C3.86378 22.1664 8.60514 20.835 14.1257 20.835Z" fill="#00B0E7"/>
<path d="M14.1237 20.8487C19.6422 20.8487 24.3695 22.1681 26.3918 24.0457C27.0725 22.7143 27.4461 21.2282 27.4461 19.6779C27.4461 13.4866 21.4797 8.01025 14.1237 8.01025C6.76763 8.01025 0.809296 13.4866 0.809296 19.6759C0.809296 21.2282 1.18684 22.7143 1.8636 24.0437C3.88988 22.1661 8.61718 20.8467 14.1237 20.8467V20.8487Z" fill="#00B2E9"/>
<path d="M14.1237 20.8649C19.6282 20.8649 24.3414 22.1702 26.3596 24.0298C27.0384 22.7104 27.4119 21.2404 27.4119 19.7061C27.4119 13.5751 21.4616 8.13086 14.1257 8.13086C6.78973 8.13086 0.843445 13.5751 0.843445 19.7021C0.843445 21.2404 1.21898 22.7104 1.89574 24.0278C3.91599 22.1702 8.63125 20.8628 14.1217 20.8628L14.1237 20.8649Z" fill="#00B4EA"/>
<path d="M14.1217 20.8791C19.6101 20.8791 24.3113 22.1704 26.3235 24.0119C27.0023 22.7066 27.3718 21.2507 27.3718 19.7304C27.3718 13.6617 21.4375 8.24756 14.1217 8.24756C6.80579 8.24756 0.877579 13.6617 0.877579 19.7284C0.877579 21.2507 1.25311 22.7066 1.92787 24.0119C3.94209 22.1724 8.6453 20.8791 14.1217 20.8791Z" fill="#00B6EB"/>
<path d="M14.1197 20.8948C19.594 20.8948 24.2812 22.1741 26.2873 23.9955C26.9641 22.7042 27.3336 21.2623 27.3336 19.7582C27.3336 13.7517 21.4155 8.36768 14.1197 8.36768C6.82387 8.36768 0.913734 13.7497 0.913734 19.7542C0.913734 21.2623 1.28726 22.7042 1.96001 23.9935C3.96821 22.172 8.65936 20.8928 14.1197 20.8928V20.8948Z" fill="#00B9ED"/>
<path d="M14.1177 20.9091C19.5759 20.9091 24.251 22.1743 26.2512 23.9776C26.926 22.6984 27.2955 21.2726 27.2955 19.7825C27.2955 13.8382 21.3954 8.48438 14.1177 8.48438C6.83994 8.48438 0.947876 13.8382 0.947876 19.7805C0.947876 21.2726 1.3214 22.7004 1.99214 23.9776C3.99632 22.1743 8.67342 20.9091 14.1177 20.9091Z" fill="#03BBEE"/>
<path d="M14.1156 20.9253C19.5599 20.9253 24.2209 22.1764 26.2171 23.9617C26.8918 22.6965 27.2593 21.2848 27.2593 19.8107C27.2593 13.9287 21.3753 8.60498 14.1177 8.60498C6.86001 8.60498 0.98201 13.9267 0.98201 19.8067C0.98201 21.2848 1.35353 22.6965 2.02427 23.9597C4.02243 22.1764 8.68748 20.9233 14.1156 20.9233V20.9253Z" fill="#12BDF0"/>
<path d="M14.1136 20.9396C19.5418 20.9396 24.1928 22.1786 26.1809 23.9438C26.8537 22.6927 27.2191 21.295 27.2191 19.8351C27.2191 14.0133 21.3512 8.72168 14.1136 8.72168C6.87608 8.72168 1.01615 14.0153 1.01615 19.8331C1.01615 21.295 1.38566 22.6947 2.0564 23.9438C4.04853 22.1786 8.69953 20.9396 14.1156 20.9396H14.1136Z" fill="#1BC0F1"/>
<path d="M14.1116 20.9533C19.5257 20.9533 24.1627 22.1783 26.1448 23.9254C26.8155 22.6864 27.181 21.3047 27.181 19.8608C27.181 14.1013 21.3291 8.83984 14.1116 8.83984C6.89415 8.83984 1.05029 14.1013 1.05029 19.8588C1.05029 21.3068 1.41979 22.6904 2.08652 23.9254C4.07263 22.1783 8.71157 20.9533 14.1116 20.9533Z" fill="#20C4F4"/>
<path d="M14.1116 20.9874C19.5177 20.9874 24.1486 22.2044 26.1287 23.9395C26.7994 22.7084 27.1649 21.3368 27.1649 19.901C27.1649 14.1796 21.3211 8.94824 14.1136 8.94824C6.90621 8.94824 1.06837 14.1816 1.06837 19.899C1.06837 21.3368 1.43788 22.7124 2.1046 23.9395C4.0887 22.2044 8.72162 20.9874 14.1136 20.9874H14.1116Z" fill="#32C5F4"/>
<path d="M14.1116 21.0215C19.5097 21.0215 24.1346 22.2304 26.1126 23.9535C26.7814 22.7305 27.1469 21.3689 27.1469 19.9431C27.1469 14.2579 21.311 9.05664 14.1116 9.05664C6.91223 9.05664 1.08644 14.2599 1.08644 19.9411C1.08644 21.3689 1.45394 22.7345 2.12066 23.9555C4.10075 22.2324 8.72764 21.0235 14.1136 21.0215H14.1116Z" fill="#40C7F4"/>
<path d="M14.1116 21.056C19.5036 21.056 24.1225 22.2569 26.0966 23.9699C26.7653 22.755 27.1288 21.4014 27.1288 19.9857C27.1288 14.3386 21.301 9.16748 14.1116 9.16748C6.92226 9.16748 1.10451 14.3386 1.10451 19.9836C1.10451 21.4034 1.47201 22.759 2.13672 23.9719C4.1148 22.2589 8.73567 21.058 14.1136 21.058L14.1116 21.056Z" fill="#4AC9F5"/>
<path d="M14.1116 21.0901C19.4956 21.0901 24.1084 22.283 26.0785 23.9839C26.7452 22.777 27.1087 21.4335 27.1087 20.0258C27.1087 14.4149 21.2869 9.27588 14.1096 9.27588C6.93231 9.27588 1.12057 14.4169 1.12057 20.0238C1.12057 21.4335 1.48808 22.781 2.15078 23.9859C4.12685 22.285 8.74169 21.0921 14.1116 21.0921V21.0901Z" fill="#54CAF5"/>
<path d="M14.1116 21.1237C19.4876 21.1237 24.0944 22.3086 26.0624 23.9995C26.7271 22.8006 27.0926 21.4651 27.0926 20.0674C27.0926 14.4947 21.2789 9.38379 14.1116 9.38379C6.94436 9.38379 1.13865 14.4947 1.13865 20.0654C1.13865 21.4671 1.50615 22.8026 2.16685 23.9995C4.1389 22.3106 8.74772 21.1237 14.1116 21.1237Z" fill="#5DCCF5"/>
<path d="M14.1116 21.1583C19.4816 21.1583 24.0823 22.3371 26.0464 24.014C26.7111 22.8231 27.0746 21.4977 27.0746 20.108C27.0746 14.5714 21.2688 9.49268 14.1116 9.49268C6.9544 9.49268 1.15672 14.5734 1.15672 20.106C1.15672 21.4977 1.52222 22.8251 2.18492 24.014C4.15497 22.3351 8.75776 21.1583 14.1116 21.1583Z" fill="#65CDF6"/>
<path d="M14.1116 21.1924C19.4735 21.1924 24.0683 22.3631 26.0303 24.0279C26.693 22.8451 27.0565 21.5277 27.0565 20.1501C27.0565 14.6516 21.2588 9.60303 14.1116 9.60303C6.96444 9.60303 1.1748 14.6516 1.1748 20.1481C1.1748 21.5297 1.54029 22.8491 2.20099 24.0299C4.16702 22.3631 8.76379 21.1944 14.1116 21.1924Z" fill="#6CCFF6"/>
<path d="M14.1116 21.2269C19.4655 21.2269 24.0542 22.3896 26.0142 24.0444C26.6769 22.8696 27.0404 21.5622 27.0404 20.1927C27.0404 14.7304 21.2508 9.71387 14.1136 9.71387C6.97649 9.71387 1.19287 14.7304 1.19287 20.1886C1.19287 21.5622 1.55836 22.8696 2.21705 24.0444C4.18107 22.3896 8.77182 21.2269 14.1116 21.2269Z" fill="#73D1F6"/>
<path d="M14.1116 21.2605C19.4595 21.2605 24.0422 22.4153 25.9982 24.058C26.6589 22.8912 27.0223 21.5919 27.0223 20.2323C27.0223 14.8082 21.2407 9.81982 14.1116 9.81982C6.98251 9.81982 1.20894 14.8082 1.20894 20.2303C1.20894 21.5939 1.57443 22.8932 2.23111 24.06C4.19112 22.4153 8.77584 21.2625 14.1096 21.2605H14.1116Z" fill="#7AD2F7"/>
<path d="M14.1116 21.2951C19.4514 21.2951 24.0281 22.4418 25.9821 24.0744C26.6408 22.9157 27.0043 21.6264 27.0043 20.2749C27.0043 14.8869 21.2307 9.93066 14.1116 9.93066C6.99255 9.93066 1.22701 14.8869 1.22701 20.2709C1.22701 21.6244 1.59049 22.9137 2.24918 24.0724C4.20717 22.4397 8.78587 21.2931 14.1116 21.2931V21.2951Z" fill="#81D4F7"/>
<path d="M14.1116 21.3291C19.4434 21.3291 24.0141 22.4678 25.964 24.0884C26.6227 22.9357 26.9862 21.6585 26.9862 20.317C26.9862 14.9671 21.2206 10.041 14.1116 10.041C7.00259 10.041 1.24508 14.9651 1.24508 20.313C1.24508 21.6585 1.60856 22.9377 2.26524 24.0884C4.21922 22.4678 8.7939 21.3291 14.1116 21.3291Z" fill="#88D6F8"/>
<path d="M14.1116 21.3633C19.4374 21.3633 24 22.4939 25.948 24.1024C26.6046 22.9578 26.9681 21.6886 26.9681 20.3572C26.9681 15.0455 21.2106 10.1475 14.1116 10.1475C7.01264 10.1475 1.26316 15.0435 1.26316 20.3551C1.26316 21.6906 1.62664 22.9618 2.28132 24.1045C4.23329 22.4939 8.79994 21.3653 14.1116 21.3633Z" fill="#8ED8F8"/>
<path d="M14.1116 21.3973C19.4293 21.3973 23.988 22.5199 25.9319 24.1184C26.5886 22.9818 26.9501 21.7226 26.9501 20.3992C26.9501 15.1237 21.1986 10.2578 14.1116 10.2578C7.02469 10.2578 1.28123 15.1237 1.28123 20.3952C1.28123 21.7226 1.64472 22.9818 2.29738 24.1184C4.24534 22.5199 8.80797 21.3973 14.1116 21.3973Z" fill="#94DAF8"/>
<path d="M14.1116 21.4314C19.4213 21.4314 23.9739 22.548 25.9158 24.1324C26.5705 23.0038 26.932 21.7527 26.932 20.4393C26.932 15.202 21.1885 10.3662 14.1116 10.3662C7.03473 10.3662 1.29931 15.202 1.29931 20.4373C1.29931 21.7547 1.66078 23.0058 2.31345 24.1344C4.2594 22.548 8.81399 21.4334 14.1116 21.4314Z" fill="#9BDCF9"/>
<path d="M14.1116 21.4655C19.4153 21.4655 23.9598 22.574 25.8998 24.1464C26.5524 23.0259 26.9159 21.7848 26.9159 20.4815C26.9159 15.2802 21.1805 10.4746 14.1116 10.4746C7.04276 10.4746 1.31537 15.2802 1.31537 20.4775C1.31537 21.7848 1.67684 23.0279 2.32951 24.1464C4.27345 22.572 8.82202 21.4655 14.1116 21.4635V21.4655Z" fill="#A1DDF9"/>
<path d="M14.1116 21.4995C19.4073 21.4995 23.9478 22.6 25.8837 24.1624C26.5364 23.0499 26.8978 21.8168 26.8978 20.5235C26.8978 15.3605 21.1705 10.585 14.1116 10.585C7.0528 10.585 1.33345 15.3585 1.33345 20.5195C1.33345 21.8188 1.69493 23.0499 2.34558 24.1624C4.28551 22.598 8.82805 21.4995 14.1116 21.4975V21.4995Z" fill="#A7DFF9"/>
<path d="M14.1116 21.5317C19.3992 21.5317 23.9337 22.6241 25.8676 24.1745C26.5183 23.07 26.8798 21.847 26.8798 20.5617C26.8798 15.4348 21.1604 10.6914 14.1116 10.6914C7.06284 10.6914 1.35152 15.4368 1.35152 20.5597C1.35152 21.849 1.71299 23.072 2.36164 24.1765C4.29955 22.6241 8.83608 21.5337 14.1116 21.5317Z" fill="#ADE1FA"/>
<path d="M14.1116 21.5657C19.3932 21.5657 23.9197 22.6501 25.8496 24.1904C26.5002 23.094 26.8617 21.879 26.8617 20.6038C26.8617 15.515 21.1504 10.8018 14.1116 10.8018C7.07288 10.8018 1.36959 15.515 1.36959 20.6018C1.36959 21.881 1.73107 23.096 2.37771 24.1924C4.3116 22.6521 8.8421 21.5677 14.1116 21.5677V21.5657Z" fill="#B3E3FA"/>
<path d="M14.1116 21.6003C19.3852 21.6003 23.9076 22.6767 25.8335 24.2049C26.4821 23.1165 26.8436 21.9116 26.8436 20.6464C26.8436 15.5938 21.1403 10.9106 14.1116 10.9106C7.08292 10.9106 1.38766 15.5938 1.38766 20.6424C1.38766 21.9136 1.74713 23.1165 2.39578 24.2069C4.32767 22.6767 8.85215 21.6023 14.1136 21.6003H14.1116Z" fill="#B9E5FA"/>
<path d="M14.1116 21.6344C19.3771 21.6344 23.8936 22.7028 25.8174 24.2189C26.4661 23.1385 26.8255 21.9437 26.8255 20.6865C26.8255 15.672 21.1303 11.019 14.1116 11.019C7.09297 11.019 1.40575 15.672 1.40575 20.6845C1.40575 21.9457 1.76521 23.1405 2.41185 24.223C4.33973 22.7048 8.86019 21.6384 14.1136 21.6364L14.1116 21.6344Z" fill="#BEE7FB"/>
<path d="M14.1116 21.6684C19.3711 21.6684 23.8795 22.7288 25.8014 24.2349C26.448 23.1625 26.8095 21.9757 26.8095 20.7286C26.8095 15.7503 21.1222 11.1294 14.1116 11.1294C7.101 11.1294 1.42181 15.7503 1.42181 20.7266C1.42181 21.9777 1.78127 23.1645 2.42591 24.2369C4.35177 22.7308 8.8642 21.6704 14.1116 21.6684Z" fill="#C4E9FB"/>
<path d="M14.1116 21.7026C19.3631 21.7026 23.8675 22.7549 25.7853 24.249C26.4299 23.1846 26.7914 22.0078 26.7914 20.7688C26.7914 15.8286 21.1122 11.2358 14.1116 11.2358C7.11104 11.2358 1.43988 15.8286 1.43988 20.7668C1.43988 22.0098 1.79935 23.1846 2.44197 24.251C4.36382 22.7549 8.87223 21.7046 14.1116 21.7026Z" fill="#CAEBFC"/>
<path d="M14.1116 21.7367C19.355 21.7367 23.8534 22.7829 25.7692 24.263C26.4139 23.2067 26.7733 22.0379 26.7733 20.8089C26.7733 15.9049 21.1002 11.3442 14.1116 11.3442C7.12308 11.3442 1.45795 15.9069 1.45795 20.8089C1.45795 22.0419 1.81541 23.2087 2.45803 24.267C4.37787 22.7829 8.87825 21.7407 14.1116 21.7387V21.7367Z" fill="#CFEDFC"/>
<path d="M14.1116 21.7711C19.349 21.7711 23.8393 22.8094 25.7532 24.2794C26.3958 23.2311 26.7552 22.0724 26.7552 20.8534C26.7552 15.9875 21.0901 11.457 14.1116 11.457C7.13312 11.457 1.47602 15.9855 1.47602 20.8494C1.47602 22.0744 1.83348 23.2311 2.4761 24.2814C4.39394 22.8094 8.88829 21.7732 14.1136 21.7711H14.1116Z" fill="#D5EFFC"/>
<path d="M14.1116 21.8053C19.341 21.8053 23.8273 22.8355 25.7351 24.2935C26.3777 23.2512 26.7372 22.1025 26.7372 20.8936C26.7372 16.0639 21.0801 11.5635 14.1116 11.5635C7.14316 11.5635 1.49409 16.0639 1.49409 20.8916C1.49409 22.1065 1.85155 23.2532 2.49217 24.2975C4.40599 22.8355 8.89431 21.8093 14.1136 21.8073L14.1116 21.8053Z" fill="#DBF1FD"/>
<path d="M14.1116 21.8393C19.3329 21.8393 23.8132 22.8615 25.719 24.3094C26.3596 23.2752 26.7191 22.1366 26.7191 20.9356C26.7191 16.1441 21.07 11.6738 14.1116 11.6738C7.15321 11.6738 1.51218 16.1441 1.51218 20.9316C1.51218 22.1366 1.86964 23.2752 2.50824 24.3094C4.42005 22.8595 8.90235 21.8393 14.1136 21.8373L14.1116 21.8393Z" fill="#E0F3FD"/>
<path d="M14.1116 21.8734C19.3269 21.8734 23.7992 22.8876 25.703 24.3234C26.3416 23.2972 26.701 22.1666 26.701 20.9758C26.701 16.2203 21.06 11.7822 14.1096 11.7822C7.15924 11.7822 1.52824 16.2224 1.52824 20.9738C1.52824 22.1706 1.8837 23.2993 2.5223 24.3254C4.43009 22.8876 8.90838 21.8754 14.1096 21.8734H14.1116Z" fill="#E6F5FD"/>
<path d="M14.1116 21.907C19.3189 21.907 23.7871 22.9131 25.6869 24.3369C26.3255 23.3187 26.685 22.1982 26.685 21.0174C26.685 16.3001 21.052 11.8921 14.1116 11.8921C7.17129 11.8921 1.54632 16.3001 1.54632 21.0133C1.54632 22.2002 1.90177 23.3187 2.54038 24.3389C4.44616 22.9131 8.91641 21.909 14.1116 21.905V21.907Z" fill="#EBF7FE"/>
<path d="M14.1116 21.9411C19.3109 21.9411 23.7731 22.9392 25.6708 24.3529C26.3074 23.3428 26.6669 22.2323 26.6669 21.0595C26.6669 16.3784 21.0419 12.0005 14.1116 12.0005C7.18133 12.0005 1.56439 16.3784 1.56439 21.0555C1.56439 22.2323 1.91984 23.3428 2.55644 24.3549C4.45821 22.9392 8.92445 21.9431 14.1116 21.9411Z" fill="#F1FAFE"/>
<path d="M14.1116 21.9757C19.3048 21.9757 23.759 22.9657 25.6548 24.3674C26.2914 23.3653 26.6488 22.2628 26.6488 21.1001C26.6488 16.4571 21.0319 12.1094 14.1116 12.1094C7.19136 12.1094 1.58246 16.4571 1.58246 21.0981C1.58246 22.2669 1.93791 23.3653 2.5725 24.3714C4.47226 22.9677 8.93046 21.9797 14.1116 21.9777V21.9757Z" fill="#F7FCFE"/>
<path d="M14.1116 22.0097C19.2968 22.0097 23.745 22.9937 25.6387 24.3834C26.2733 23.3893 26.6328 22.2969 26.6328 21.1422C26.6328 16.5353 21.0238 12.2197 14.1136 12.2197C7.20341 12.2197 1.60053 16.5353 1.60053 21.1381C1.60053 22.2969 1.95398 23.3873 2.58857 24.3854C4.48431 22.9937 8.9385 22.0117 14.1116 22.0097Z" fill="white"/>
</g>
<path d="M14.0494 17.415C9.51285 17.415 5.30366 18.1862 1.83148 19.4915C3.918 24.1606 8.59912 27.4119 14.0534 27.4119C19.5077 27.4119 24.1707 24.1566 26.2632 19.4915C22.7911 18.1862 18.5759 17.415 14.0494 17.415Z" fill="#0083CA"/>
<path d="M31.7115 18.0376H40.5556V25.6567H44.0157V18.0376H52.8598V15.8848H31.7115V18.0376Z" fill="#0067AC"/>
<path d="M36.8866 12.2902C37.5754 12.8204 38.3868 13.2421 39.3045 13.5514C40.2223 13.8566 41.2243 14.0132 42.2847 14.0132C43.345 14.0132 44.325 13.8566 45.2387 13.5514C46.1565 13.2441 46.9698 12.8184 47.6606 12.2902C48.3494 11.74 48.9037 11.0973 49.3094 10.3784C49.713 9.65344 49.9199 8.86824 49.9199 8.03885C49.9199 7.20946 49.713 6.45036 49.3094 5.72339C48.9037 5.00446 48.3514 4.36183 47.6586 3.81159C46.9718 3.28544 46.1585 2.85568 45.2428 2.5404C44.329 2.22511 43.333 2.06445 42.2867 2.06445C41.2404 2.06445 40.2202 2.2231 39.3065 2.5404C38.3888 2.85568 37.5754 3.28544 36.8866 3.8136C36.1958 4.35983 35.6456 5.00245 35.2499 5.7254C34.8543 6.45036 34.6515 7.22754 34.6515 8.03684C34.6515 8.84615 34.8543 9.65143 35.2499 10.3764C35.6456 11.0953 36.1958 11.738 36.8886 12.2882L36.8866 12.2902ZM38.1116 8.03885C38.1116 7.53881 38.2221 7.0468 38.439 6.58692C38.6579 6.12303 38.9571 5.71536 39.3346 5.37397C39.7082 5.01651 40.152 4.73134 40.654 4.5245C41.1561 4.32167 41.7063 4.21724 42.2847 4.21724C42.863 4.21724 43.3852 4.32167 43.8892 4.5245C44.3913 4.73134 44.8371 5.01651 45.2106 5.37598C45.5841 5.71737 45.8894 6.12303 46.1183 6.58893C46.3432 7.05082 46.4557 7.53881 46.4557 8.03885C46.4557 8.53889 46.3432 9.05299 46.1183 9.51688C45.8894 9.98078 45.5862 10.3864 45.2086 10.7298C44.8331 11.0893 44.3893 11.3705 43.8892 11.5652C42.8691 11.9629 41.638 11.9528 40.652 11.5652C40.15 11.3705 39.7061 11.0893 39.3306 10.7298C38.9551 10.3864 38.6538 9.98078 38.437 9.51688C38.2181 9.055 38.1096 8.55897 38.1096 8.03885H38.1116Z" fill="#0067AC"/>
<path d="M71.6666 2.47217H68.9736L69.1383 2.675C69.2046 2.75934 69.2447 2.8477 69.2588 2.95414C69.3391 3.28147 69.3753 3.79959 69.3753 4.49443V15.2242C69.3753 15.895 68.9837 16.3448 68.1784 16.5978C67.9113 16.6802 67.4896 16.7384 66.9273 16.7706H59.5893C59.1977 16.7706 59.0752 16.6822 59.033 16.628C58.9527 16.5276 58.9126 16.3609 58.9126 16.14V11.8605H65.2504C65.63 11.8605 65.887 11.7842 66.0336 11.6296C66.1782 11.481 66.2525 11.25 66.2525 10.9488V4.06467C66.2525 3.76143 66.1742 3.5325 66.0196 3.37787C65.8629 3.22725 65.6039 3.15295 65.2263 3.15295H55.3319V5.30574H62.7924V9.70771H55.0889L55.3159 10.1796C55.4082 10.4507 55.4544 10.7861 55.4544 11.1757V17.3489C55.4544 17.7365 55.591 18.0739 55.8541 18.349C56.2176 18.7285 56.8039 18.9193 57.5992 18.9193H66.2545L67.6241 18.8671C68.4435 18.7828 69.0218 18.6342 69.3793 18.4133V25.3978H72.8394V3.40799C72.8394 2.99028 72.6366 2.49627 71.6686 2.47217H71.6666Z" fill="#0067AC"/>
<path d="M94.6545 3.35578C94.6545 2.95213 94.4517 2.47217 93.4837 2.47217H90.8289L91.0538 2.93606C91.1462 3.27344 91.1944 3.78955 91.1944 4.47033V25.3998H94.6545V11.9348H97.9098V9.78402H94.6545V3.35578Z" fill="#0067AC"/>
<path d="M87.5555 3.15283H77.0285V5.27952H84.7099C84.7722 5.28956 84.8244 5.31566 84.8645 5.33976C84.8645 5.33976 84.8846 5.37591 84.8545 5.52452C84.7661 6.8921 84.5051 8.17936 84.0713 9.38026H77.151V11.5331H83.0592C81.5972 14.0051 79.2657 16.0475 76.0807 17.646L75.9541 17.7103L76.9101 19.2044L77.0044 19.1702C84.6557 16.5315 88.5436 11.4387 88.5576 4.04046C88.5576 3.6348 88.3849 3.15283 87.5575 3.15283H87.5555Z" fill="#0067AC"/>
<path d="M101.263 4.33985C101.388 4.65916 101.448 5.02867 101.448 5.43231V13.3286C101.448 13.7824 101.615 14.1881 101.944 14.5315C102.372 14.9773 103.015 15.2022 103.858 15.2022H117.518V13.0514H105.559C105.109 13.0514 104.908 12.8707 104.908 12.469V5.93838H117.397V3.7876H100.908L101.059 3.99043C101.165 4.12698 101.231 4.24547 101.261 4.33985H101.263Z" fill="#0067AC"/>
<path d="M120 20.7427H98.8497V22.8955H120V20.7427Z" fill="#0067AC"/>
</svg>
