<svg width="21" height="20" viewBox="0 0 21 20" fill="none" xmlns="http://www.w3.org/2000/svg">
<path fill-rule="evenodd" clip-rule="evenodd" d="M8.25 0C12.8064 0 16.5 3.69364 16.5 8.25C16.4999 10.1042 15.8872 11.8147 14.8545 13.1924L20.248 18.5859L18.834 20L13.4697 14.6367C12.0476 15.8002 10.2308 16.5 8.25 16.5C3.69392 16.4998 0.000263865 12.8061 0 8.25C4.32926e-05 3.69375 3.69378 0.000175246 8.25 0ZM8.25 2C4.79835 2.00018 2.00004 4.79832 2 8.25C2.00026 11.7015 4.79849 14.4998 8.25 14.5C11.7017 14.5 14.4997 11.7016 14.5 8.25C14.5 4.79821 11.7018 2 8.25 2Z" fill="black"/>
</svg>
