<svg width="24" height="25" viewBox="0 0 24 25" fill="none" xmlns="http://www.w3.org/2000/svg">
<path d="M4 8.75684C5.36976 7.65841 7.10761 7 9 7C13.4183 7 17 10.5817 17 15C17 19.4183 13.4183 23 9 23C7.10739 23 5.36984 22.3408 4 21.2422V23H0V2H4V8.75684ZM9 10.9424C6.75878 10.9424 4.94238 12.7588 4.94238 15C4.94238 17.2412 6.75878 19.0576 9 19.0576C11.2412 19.0576 13.0576 17.2412 13.0576 15C13.0576 12.7588 11.2412 10.9424 9 10.9424Z" fill="white"/>
<rect x="22" width="2" height="25" fill="white"/>
</svg>
